# xmcd
#
# Track frame offsets:
#	150
#	16558
#	30528
#	40077
#	53047
#	68173
#	82002
#	93801
#	109942
#	125032
#
# Disc length: 1833 seconds
#
# Revision: 0
# Processed by: cddbd v1.5.1PL2 Copyright (c) Steve Scherf et al.
# Submitted via: dBpowerAMP V4.0
#
DISCID=7507270a
DTITLE=carlos y  jose  - carlos   jose 
DYEAR=1996
DGENRE=Country
TTITLE0=el chuvsaco
TTITLE1=tu
TTITLE2=solo
TTITLE3=tu loco
TTITLE4=y solo
TTITLE5=por 
TTITLE6=tu  culpa
TTITLE7=loca
TTITLE8=desgrasiada
TTITLE9=pendeja
EXTD=  carlos y  jose\n
EXTT0=
EXTT1=
EXTT2=
EXTT3=
EXTT4=
EXTT5=
EXTT6=
EXTT7=
EXTT8=
EXTT9=
PLAYORDER=
